<svg width="25" height="24" viewBox="0 0 25 24" fill="none" xmlns="http://www.w3.org/2000/svg">
    <path
        d="M15.4399 5.19C15.818 4.75428 16.1062 4.24817 16.2881 3.70074C16.47 3.1533 16.542 2.57533 16.4999 2C15.3393 2.09369 14.2619 2.63956 13.4999 3.52C13.135 3.94198 12.8585 4.43288 12.6867 4.96364C12.515 5.49441 12.4514 6.05424 12.4999 6.61C13.0661 6.61472 13.6257 6.4891 14.1355 6.24286C14.6453 5.99662 15.0916 5.63637 15.4399 5.19ZM17.9599 12.63C17.9666 11.8637 18.1685 11.1118 18.5464 10.4452C18.9243 9.77859 19.4659 9.21926 20.1199 8.82C19.7071 8.22524 19.1615 7.73483 18.5262 7.38767C17.8909 7.04052 17.1834 6.84615 16.4599 6.82C14.8999 6.66 13.4599 7.73 12.6299 7.73C11.7999 7.73 10.6299 6.84 9.32991 6.86C8.48004 6.888 7.65193 7.13578 6.92636 7.57919C6.20079 8.02259 5.60252 8.64648 5.18991 9.39C3.42991 12.45 4.73991 17 6.49991 19.47C7.29991 20.68 8.29991 22.05 9.61991 22C10.9399 21.95 11.3699 21.18 12.8999 21.18C14.4299 21.18 14.8999 22 16.1999 21.97C17.4999 21.94 18.4199 20.73 19.2599 19.52C19.855 18.6415 20.3198 17.6816 20.6399 16.67C19.8474 16.332 19.1712 15.7693 18.695 15.0513C18.2187 14.3333 17.9631 13.4916 17.9599 12.63Z"
        fill="black" />
</svg>
