<svg width="24" height="24" viewBox="0 0 24 24" fill="none" xmlns="http://www.w3.org/2000/svg">
    <path
        d="M22.6023 10.0039C22.5606 9.77329 22.4393 9.56462 22.2594 9.41434C22.0796 9.26405 21.8527 9.18169 21.6184 9.18164H12.2C12.0686 9.1816 11.9386 9.20745 11.8172 9.25769C11.6959 9.30793 11.5857 9.38159 11.4928 9.47446C11.3999 9.56732 11.3263 9.67757 11.276 9.79891C11.2258 9.92026 11.1999 10.0503 11.2 10.1816V14.0498C11.1999 14.1811 11.2258 14.3112 11.276 14.4325C11.3263 14.5539 11.3999 14.6641 11.4928 14.757C11.5857 14.8498 11.6959 14.9235 11.8172 14.9737C11.9386 15.024 12.0686 15.0498 12.2 15.0498H16.1624C15.88 15.5264 15.493 15.9324 15.0305 16.2373C14.1854 16.7731 13.2004 17.0464 12.2 17.0225C11.1624 17.0106 10.1551 16.672 9.32096 16.0549C8.48686 15.4377 7.86849 14.5734 7.55373 13.5847L7.55344 13.583C7.20317 12.5564 7.20317 11.4426 7.55344 10.416L7.55368 10.4143C7.86866 9.42585 8.48712 8.56175 9.3212 7.94479C10.1553 7.32782 11.1626 6.98938 12.2 6.97754C12.7764 6.96431 13.3497 7.06508 13.8871 7.27406C14.4245 7.48304 14.9152 7.79612 15.3313 8.19531C15.5202 8.37587 15.7723 8.47533 16.0337 8.47241C16.295 8.46949 16.5448 8.36443 16.7297 8.17969L19.5979 5.31152C19.6929 5.21662 19.7678 5.10354 19.8182 4.97904C19.8685 4.85454 19.8932 4.72116 19.8908 4.58689C19.8885 4.45262 19.8591 4.3202 19.8044 4.19755C19.7497 4.0749 19.6708 3.96453 19.5725 3.87305C17.5766 2.00175 14.9357 0.97261 12.2 0.999999C10.1599 0.993963 8.15873 1.55801 6.4221 2.62854C4.68547 3.69906 3.28247 5.23349 2.37131 7.05878L2.36984 7.06055C1.59737 8.59231 1.19659 10.2845 1.19997 12C1.20241 13.7148 1.60289 15.4057 2.36989 16.9394L2.37136 16.9412C3.28252 18.7665 4.68551 20.3009 6.42213 21.3714C8.15875 22.442 10.1599 23.006 12.2 23C14.8853 23.068 17.4951 22.1067 19.4947 20.313L19.4954 20.3125L19.4962 20.3117L19.4964 20.3115L19.4964 20.3114C20.5803 19.2688 21.434 18.011 22.003 16.6188C22.5719 15.2266 22.8434 13.7309 22.8001 12.2275C22.8005 11.4819 22.7343 10.7378 22.6023 10.0039ZM12.2 3C14.071 2.98179 15.8979 3.56854 17.4085 4.67285L15.9548 6.126C14.8526 5.36305 13.5404 4.96171 12.2 4.97754C10.9762 4.98383 9.7762 5.31613 8.7235 5.94022C7.6708 6.56432 6.80343 7.45767 6.21066 8.52832L5.14145 7.69958L4.55645 7.24591C5.36122 5.94375 6.48644 4.8697 7.82461 4.12636C9.16278 3.38301 10.6692 2.99521 12.2 3ZM3.67941 14.9033C3.04009 13.0206 3.04009 10.9794 3.67941 9.09668L5.46164 10.4785C5.23377 11.4797 5.23377 12.5193 5.46164 13.5205L3.67941 14.9033ZM12.2 21C10.6692 21.0048 9.16274 20.6169 7.82455 19.8736C6.48637 19.1302 5.36114 18.0561 4.55637 16.7539L4.93478 16.4604L6.21066 15.4707C6.80317 16.5416 7.67046 17.4353 8.7232 18.0596C9.77593 18.6839 10.9761 19.0162 12.2 19.0225C13.3456 19.0359 14.4783 18.7787 15.5057 18.2717L17.1974 19.585C15.7096 20.5436 13.9695 21.0363 12.2 21ZM18.7259 18.2393L18.5429 18.0973L17.1655 17.028C17.8877 16.2477 18.3731 15.2782 18.5652 14.2325C18.592 14.0881 18.5867 13.9396 18.5497 13.7976C18.5127 13.6555 18.4448 13.5233 18.351 13.4104C18.2571 13.2975 18.1395 13.2067 18.0066 13.1444C17.8736 13.0821 17.7286 13.0498 17.5818 13.0498H13.2V11.1816H20.7488C20.783 11.5273 20.8001 11.8769 20.8001 12.2275C20.8585 14.4164 20.1216 16.5522 18.7258 18.2393H18.7259Z"
        fill="black" />
</svg>
