<svg width="64" height="64" viewBox="0 0 64 64" fill="none" xmlns="http://www.w3.org/2000/svg">
    <rect width="64" height="64" rx="12" fill="#22C55E" />
    <path
        d="M30.2826 24.4325C35.7569 26.3646 41.6607 26.2573 47.0814 24.1641C47.135 21.9636 46.5447 19.7632 45.5249 17.7774L44.9882 16.7039C44.8272 16.7576 44.6125 16.865 44.5052 16.9723C39.5675 19.3338 33.9858 19.6558 28.7798 17.7774C25.1302 16.4893 21.1586 16.8113 17.7237 18.5287L16.6503 19.0654C16.704 19.2265 16.8113 19.4411 16.9186 19.5485C17.5627 20.9439 18.0994 22.4467 18.4751 24.0031C22.232 22.9297 26.4183 23.037 30.2826 24.4325Z"
        fill="white" />
    <path
        d="M16.9188 40.5872L18.0996 39.9432C20.4921 38.747 23.1314 38.1679 25.7502 38.2443C27.3611 38.2912 28.9643 38.5862 30.4974 39.1381C30.9968 39.3153 31.4979 39.478 32.0002 39.6263V45.3471C29.9222 44.9608 27.8186 44.9056 25.7502 45.1719C23.6045 45.4481 21.4968 46.0703 19.495 47.0277C19.3877 47.135 19.173 47.2424 19.012 47.296L18.4753 46.2226C17.5629 44.4515 17.0262 42.5194 16.9188 40.5872Z"
        fill="white" />
    <path
        d="M17.5623 35.6496C22.1243 33.7711 27.223 33.6101 31.8923 35.2739C36.186 36.7766 40.7479 37.045 45.0416 36.0789C44.9879 33.6638 45.3099 31.3023 46.1686 28.9408C40.5333 30.6045 34.4685 30.4435 28.8331 28.4577C25.6129 27.277 22.0706 27.277 18.8504 28.3504C18.9041 30.6582 18.4748 33.0197 17.6697 35.3275C17.6697 35.3275 17.616 35.4886 17.5623 35.6496Z"
        fill="white" />
</svg>
